<?xml version="1.0" encoding="utf-8"?>
<!-- Generator: Adobe Illustrator 21.1.0, SVG Export Plug-In . SVG Version: 6.00 Build 0)  -->
<svg version="1.1" id="Layer_1" xmlns="http://www.w3.org/2000/svg" xmlns:xlink="http://www.w3.org/1999/xlink" x="0px" y="0px"
	 viewBox="0 0 500 500" style="enable-background:new 0 0 500 500;" xml:space="preserve">
<style type="text/css">
	.st0{fill:#313438;}
	.st1{fill:#1E1F21;}
	.st2{fill:#3C2A34;}
	.st3{fill:#FFFAEF;}
	.st4{fill:#F4EFD7;}
	.st5{fill:#F58981;}
	.st6{fill:#FAB217;}
	.st7{fill:#6E7C7D;}
	.st8{fill:#DBECCC;}
	.st9{fill:#DF9FA1;}
	.st10{font-family:'ArialMT';}
	.st11{font-size:72px;}
	.st12{opacity:0.2;fill:#4C4B48;enable-background:new    ;}
	.st13{fill:#FFFFFF;}
	.st14{font-size:18px;}
</style>
<g id="BACKGROUND">
	<rect x="1.6" class="st0" width="500" height="500"/>
</g>
<g id="OBJECT">
	<g>
		<path class="st1" d="M419.2,375.7c0,0-34.9,16.4-58.3,5.6s-95.6-15.6-140.5-5.6c-66.6,14.7-86.3-9.3-79.3-25.1l53.8-7
			c0,0,69.4,2.5,121.4,3.1C368.3,347.4,416.8,367,419.2,375.7z"/>
		<ellipse class="st1" cx="241.6" cy="324.1" rx="141.2" ry="35.2"/>
		<path class="st2" d="M188.5,322.9c0,0-50.8,10.8-39.6,38.6c8,19.9,102-2.1,148.9-1c33.6,0.8,59.7,7.7,69.2,12.2
			c55.8,26.1,81-12.9,18.9-27c-30.8-7-55.5-7.7-90.1-6c-54.1,2.6-111,13.6-114,8.9c-4.8-7.7,37.1-19.6,37.1-19.6
			S213.6,313.4,188.5,322.9z"/>
		<path class="st3" d="M181.9,125.5c0,0-9.7,26.7-35.3,67.1c-19.9,31.4-52.3,130.6,91.3,137.9c143.5,7.3,111.3-78.1,98.2-124.4
			C323,160,342,64.9,286.1,56.4c-55.9-8.6-52.9-1.1-73.1,12.2C207.2,72.4,181.9,125.5,181.9,125.5z"/>
		<path class="st4" d="M341.4,224.6c0,0-49.9-2.5-55-47.6c0,0,17.2,40.9,51.8,35.8C338.2,212.8,340.2,220.1,341.4,224.6z"/>
		<path class="st4" d="M211,217.4c0,0-17.3,24.5-37.9,11.5S141,202.6,141,202.6l7.6-14.7C148.7,187.9,166.8,228,211,217.4z"/>
		<path class="st4" d="M138.9,207.5c0,0-35.4,87.9,60.1,93.1s149.5-3.1,147.8-52.3c0,0,18.6,63.4-37.6,76.8
			c-50.9,12.1-125.8,10.7-151.6-14.8C131.7,284.9,115.5,242.6,138.9,207.5z"/>
		<path class="st2" d="M292.6,63.1l71.6-0.6c0,0-5.3,21.6-70.5,32L292.6,63.1z"/>
		<path class="st5" d="M310.5,69.2l39.7,1.6c0,0-13.8,10.9-32.6,13.4L310.5,69.2z"/>
		<path class="st2" d="M239.5,66.3L208.6,10c0,0-7.6,42.5-3,70.5L239.5,66.3z"/>
		<path class="st5" d="M226.3,57.1l-13.7-28.9c0,0-3.4,21.8-4.8,42.8C207.9,71,224.4,64.2,226.3,57.1z"/>
		<path class="st2" d="M260.5,53.2c0,0,18.1,67.6-20.4,80.9c-38.6,13.3-58.2-8.6-58.2-8.6s9.2-21,16.3-38.4
			C211,55.8,242.6,50.4,260.5,53.2z"/>
		<path class="st2" d="M276.9,55c0,0-17.9,67.8,4.4,81.5c22.4,13.7,47.3-3.8,47.3-3.8S334.8,55.4,276.9,55z"/>
		<path class="st2" d="M259.3,179.3"/>
		<polygon class="st2" points="266.1,138.7 266.7,149.5 268.9,150.1 266.9,138.9 		"/>
		<path class="st2" d="M256.9,163.1c0,0,9.9-27.7,31.6-18.5C288.4,144.5,272,142,256.9,163.1z"/>
		<path class="st6" d="M211.2,100.6l37.8,0.2c0,0,6.8,23.1-17.1,24.9C208,127.6,211.2,100.6,211.2,100.6z"/>
		<path class="st2" d="M215.4,96.8l29.5,0.2c0,0,5.3,18-13.3,19.5C212.9,118,215.4,96.8,215.4,96.8z"/>
		
			<ellipse transform="matrix(6.270881e-03 -1 1 6.270881e-03 139.0816 348.2002)" class="st3" cx="244.7" cy="104.1" rx="2.1" ry="2.1"/>
		<path class="st6" d="M278.8,101l37.8,0.2c0,0,6.8,23.1-17.1,24.9C275.6,128.1,278.8,101,278.8,101z"/>
		<path class="st2" d="M283.1,97.2l29.5,0.2c0,0,5.3,18-13.3,19.5C280.5,118.4,283.1,97.2,283.1,97.2z"/>
		
			<ellipse transform="matrix(6.386686e-03 -1 1 6.386686e-03 205.87 416.3268)" class="st3" cx="312.4" cy="104.6" rx="2.1" ry="2.1"/>
		<path class="st7" d="M250.8,121.1c0,0-11.2,18.6-40.7,8.7C210.1,129.8,231.6,137.4,250.8,121.1z"/>
		<polygon class="st7" points="253.2,85.3 253.1,96.3 208.9,96.1 251,94.3 		"/>
		<polygon class="st7" points="277.9,87.6 278.7,98.6 318.7,98.2 281.3,96.5 		"/>
		<path class="st7" d="M280.3,121.3c0,0,16.1,28.3,36,1.9C316.3,123.2,299.6,146.1,280.3,121.3z"/>
		<path class="st2" d="M308.6,66.8c0,0,17.7-0.4,22.5,10.5c0,0-12.4-8.9-22.8-8.8c0,0,15.6,2.2,18.6,12.7c0,0-10.7-12.6-20.3-11
			L308.6,66.8z"/>
		<path class="st2" d="M231.2,59c0,0-8.1-15.7-20-14.7c0,0,13.7,6.6,18.6,15.8c0,0-9.4-12.6-20.1-10.3c0,0,16.1,3.3,19.4,12.6
			L231.2,59z"/>
		<path class="st8" d="M257.7,137.5l-69.9-22.4C187.8,115.2,225,130.4,257.7,137.5z"/>
		<path class="st8" d="M257.7,137.5l-76.4-3.6C181.4,134,222.8,139.4,257.7,137.5z"/>
		<path class="st8" d="M253.1,138.8l-70.2,13.5C182.9,152.3,221.5,148.2,253.1,138.8z"/>
		<path class="st8" d="M274.3,132.8l67.8-28.1C342.1,104.8,306.3,123,274.3,132.8z"/>
		<path class="st8" d="M274.3,132.8l75.8-9.9C350.1,122.9,309.3,131.7,274.3,132.8z"/>
		<path class="st8" d="M279,133.7l71.1,7.6C350.1,141.4,311.3,140.4,279,133.7z"/>
		<path class="st8" d="M318.8,143.4c0,0-23.1,2-39.3,33.5C279.4,176.9,288.1,140.2,318.8,143.4z"/>
		<path class="st8" d="M318.3,240.9c0,0-71.9-84.1-144.5,6.1C173.8,247,231.6,167.1,318.3,240.9z"/>
		<path class="st2" d="M130.1,269.3c0,0,41.9,39.4,34.6,53.3c-13.4,25.8-46,6.3-57.2-16.7C93.4,277,100,241.9,130.1,269.3z"/>
		<path class="st2" d="M339.2,216.8c0,0-44.8-6.5-52.3-36.7c-4-16.4,17.7-35.6,31.5-35.4c13.7,0.2,0.1,16.9,0,29.1
			c0,1.8,13.4,6,13.4,6S337.4,203.5,339.2,216.8z"/>
		<path class="st9" d="M145,305.3c0,0-11.9-21.9-20.1-12.7c-8.3,9.2,4.4,27.3,16.1,28C152.8,321.3,145,305.3,145,305.3z"/>
		<path class="st9" d="M130.5,277.1c0,0,4.2,6.8-0.2,7.9C124.5,286.2,124.6,269.8,130.5,277.1z"/>
		<path class="st9" d="M120.1,281c0,0,6,5.4,2,7.6C117,291.5,112.4,275.7,120.1,281z"/>
		<path class="st9" d="M112.7,289.5c0,0,7.7,2.3,5,6.1C114.2,300.4,103.4,288,112.7,289.5z"/>
		<path class="st2" d="M353.1,269.3c0,0-41.9,39.4-34.6,53.3c13.4,25.8,46,6.3,57.2-16.7C389.8,277,383.2,241.9,353.1,269.3z"/>
		<path class="st9" d="M338.2,305.3c0,0,11.9-21.9,20.1-12.7c8.3,9.2-4.3,27.3-16.1,28S338.2,305.3,338.2,305.3z"/>
		<path class="st9" d="M352.6,277.1c0,0-4.2,6.8,0.2,7.9C358.6,286.2,358.6,269.8,352.6,277.1z"/>
		<path class="st9" d="M363,281c0,0-6,5.4-2,7.6C366.2,291.5,370.8,275.7,363,281z"/>
		<path class="st9" d="M370.5,289.5c0,0-7.7,2.3-5,6.1C369,300.4,379.8,288,370.5,289.5z"/>
		<path class="st5" d="M259.5,130.3c0,0,10.5-5.6,13.3-0.4c0,0-4.7,11.5-5.9,11.5C265.7,141.2,259.5,130.3,259.5,130.3z"/>
		<path class="st7" d="M245.8,71.3c0,0-11.3,5.1-27.3,3.4C218.5,74.7,234.3,79.8,245.8,71.3z"/>
		<path class="st7" d="M309.3,75.8c0,0-12.4-0.3-26.1-8.7C283.1,67.1,295.2,78.6,309.3,75.8z"/>
		<path class="st7" d="M314.2,147.8l-9.9,15.6C304.2,163.4,314.8,158.1,314.2,147.8z"/>
		<path class="st7" d="M321.1,150.4l-9.9,15.6C311.1,166,321.7,160.8,321.1,150.4z"/>
		<polygon class="st1" points="169.7,208 303.7,183 318.8,269.4 184,294.7 		"/>
		<text transform="matrix(0.9826 -0.1856 0.1856 0.9826 194.9022 275.2012)" class="st3 st10 st11">404</text>
		<path class="st12" d="M173.2,228.7c0,0,17.6,15.4,37.3-10.7c0,0-21.6,14.4-38.6,2.4L173.2,228.7z"/>
		<path class="st2" d="M167.2,157.2c0,0,9.3,23.6,15.7,33.3s34.6,19.1,28.2,26.9c0,0-18.1,19.8-45.2-1
			c-12.7-9.7-19.2-23.7-19.2-23.7S151.8,177,167.2,157.2z"/>
		<path class="st7" d="M186.5,214.2l16.8,7.8C203.3,222,196.7,212.3,186.5,214.2z"/>
		<path class="st7" d="M191.2,209l16.7,7.8C208,216.8,201.4,207.1,191.2,209z"/>
		<polygon class="st4" points="318.8,269.4 184.9,299.1 169.7,226.7 172.7,226.1 186.5,294.2 		"/>
	</g>
	<text transform="matrix(1 0 0 1 155.5541 444.3557)" class="st13 st10 st14">Page not found. Meow.</text>
</g>
<g id="DESIGNED_BY_FREEPIK_1_">
</g>
</svg>
